<mxfile host="app.diagrams.net" modified="2024-03-21T14:14:53.624Z" agent="Mozilla/5.0 (Windows NT 10.0; Win64; x64) AppleWebKit/537.36 (KHTML, like Gecko) Chrome/123.0.0.0 Safari/537.36" etag="nkZ9cfv7CWC8JghO14Ut" version="24.0.7" type="google">
  <diagram name="PÃ¡gina-1" id="drn7GQpLiRpFDmXvdd8O">
    <mxGraphModel grid="1" page="1" gridSize="10" guides="1" tooltips="1" connect="1" arrows="1" fold="1" pageScale="1" pageWidth="827" pageHeight="1169" math="0" shadow="0">
      <root>
        <mxCell id="0" />
        <mxCell id="1" parent="0" />
        <mxCell id="FiwjEUYQYhtLU72TDXJb-38" value="" style="rounded=0;whiteSpace=wrap;html=1;movable=0;resizable=0;rotatable=0;deletable=0;editable=0;locked=1;connectable=0;" vertex="1" parent="1">
          <mxGeometry x="30" width="890" height="520" as="geometry" />
        </mxCell>
        <mxCell id="FiwjEUYQYhtLU72TDXJb-25" style="edgeStyle=orthogonalEdgeStyle;rounded=0;orthogonalLoop=1;jettySize=auto;html=1;entryX=0;entryY=0.5;entryDx=0;entryDy=0;endArrow=none;endFill=0;" edge="1" parent="1" source="FiwjEUYQYhtLU72TDXJb-1" target="FiwjEUYQYhtLU72TDXJb-7">
          <mxGeometry relative="1" as="geometry" />
        </mxCell>
        <mxCell id="FiwjEUYQYhtLU72TDXJb-26" style="edgeStyle=orthogonalEdgeStyle;rounded=0;orthogonalLoop=1;jettySize=auto;html=1;endArrow=none;endFill=0;" edge="1" parent="1" source="FiwjEUYQYhtLU72TDXJb-1" target="FiwjEUYQYhtLU72TDXJb-14">
          <mxGeometry relative="1" as="geometry" />
        </mxCell>
        <mxCell id="FiwjEUYQYhtLU72TDXJb-27" style="edgeStyle=orthogonalEdgeStyle;rounded=0;orthogonalLoop=1;jettySize=auto;html=1;entryX=0;entryY=0.5;entryDx=0;entryDy=0;endArrow=none;endFill=0;" edge="1" parent="1" source="FiwjEUYQYhtLU72TDXJb-1" target="FiwjEUYQYhtLU72TDXJb-18">
          <mxGeometry relative="1" as="geometry" />
        </mxCell>
        <mxCell id="FiwjEUYQYhtLU72TDXJb-1" value="API GATEWAY" style="rounded=1;whiteSpace=wrap;html=1;" vertex="1" parent="1">
          <mxGeometry x="130" y="140" width="80" height="250" as="geometry" />
        </mxCell>
        <mxCell id="FiwjEUYQYhtLU72TDXJb-47" style="edgeStyle=orthogonalEdgeStyle;rounded=0;orthogonalLoop=1;jettySize=auto;html=1;entryX=0.5;entryY=0;entryDx=0;entryDy=0;endArrow=none;endFill=0;" edge="1" parent="1" source="FiwjEUYQYhtLU72TDXJb-7" target="FiwjEUYQYhtLU72TDXJb-14">
          <mxGeometry relative="1" as="geometry" />
        </mxCell>
        <mxCell id="FiwjEUYQYhtLU72TDXJb-48" style="edgeStyle=orthogonalEdgeStyle;rounded=0;orthogonalLoop=1;jettySize=auto;html=1;entryX=1;entryY=0.5;entryDx=0;entryDy=0;endArrow=none;endFill=0;" edge="1" parent="1" source="FiwjEUYQYhtLU72TDXJb-7" target="FiwjEUYQYhtLU72TDXJb-18">
          <mxGeometry relative="1" as="geometry">
            <Array as="points">
              <mxPoint x="620" y="85" />
              <mxPoint x="620" y="395" />
            </Array>
          </mxGeometry>
        </mxCell>
        <mxCell id="FiwjEUYQYhtLU72TDXJb-7" value="" style="rounded=1;whiteSpace=wrap;html=1;" vertex="1" parent="1">
          <mxGeometry x="330" y="30" width="270" height="110" as="geometry" />
        </mxCell>
        <mxCell id="FiwjEUYQYhtLU72TDXJb-11" value="" style="shape=image;verticalLabelPosition=bottom;labelBackgroundColor=default;verticalAlign=top;aspect=fixed;imageAspect=0;image=https://miro.medium.com/v2/resize:fit:546/1*IXq96YHAUoKk-ZNLOpaRUQ.png;" vertex="1" parent="1">
          <mxGeometry x="340" y="40" width="126" height="60" as="geometry" />
        </mxCell>
        <mxCell id="FiwjEUYQYhtLU72TDXJb-12" value="" style="shape=image;verticalLabelPosition=bottom;labelBackgroundColor=default;verticalAlign=top;aspect=fixed;imageAspect=0;image=https://www.opc-router.de/wp-content/uploads/2021/03/mongodb_thumbnail.png;" vertex="1" parent="1">
          <mxGeometry x="450" y="45" width="52.04" height="70" as="geometry" />
        </mxCell>
        <mxCell id="FiwjEUYQYhtLU72TDXJb-13" value="ms-customers" style="text;html=1;align=center;verticalAlign=middle;whiteSpace=wrap;rounded=0;fontSize=17;" vertex="1" parent="1">
          <mxGeometry x="340" y="100" width="110" height="30" as="geometry" />
        </mxCell>
        <mxCell id="KSpair8llf9jZ93B1J-t-6" style="edgeStyle=orthogonalEdgeStyle;rounded=0;orthogonalLoop=1;jettySize=auto;html=1;endArrow=none;endFill=0;" edge="1" parent="1" source="FiwjEUYQYhtLU72TDXJb-14" target="KSpair8llf9jZ93B1J-t-1">
          <mxGeometry relative="1" as="geometry" />
        </mxCell>
        <mxCell id="FiwjEUYQYhtLU72TDXJb-14" value="" style="rounded=1;whiteSpace=wrap;html=1;" vertex="1" parent="1">
          <mxGeometry x="330" y="210" width="270" height="110" as="geometry" />
        </mxCell>
        <mxCell id="FiwjEUYQYhtLU72TDXJb-15" value="" style="shape=image;verticalLabelPosition=bottom;labelBackgroundColor=default;verticalAlign=top;aspect=fixed;imageAspect=0;image=https://miro.medium.com/v2/resize:fit:546/1*IXq96YHAUoKk-ZNLOpaRUQ.png;" vertex="1" parent="1">
          <mxGeometry x="340" y="216" width="126" height="60" as="geometry" />
        </mxCell>
        <mxCell id="FiwjEUYQYhtLU72TDXJb-16" value="" style="shape=image;verticalLabelPosition=bottom;labelBackgroundColor=default;verticalAlign=top;aspect=fixed;imageAspect=0;image=https://www.opc-router.de/wp-content/uploads/2021/03/mongodb_thumbnail.png;" vertex="1" parent="1">
          <mxGeometry x="450" y="219" width="52.04" height="70" as="geometry" />
        </mxCell>
        <mxCell id="FiwjEUYQYhtLU72TDXJb-17" value="ms-customer-product" style="text;html=1;align=center;verticalAlign=middle;whiteSpace=wrap;rounded=0;fontSize=17;" vertex="1" parent="1">
          <mxGeometry x="340" y="280" width="200" height="30" as="geometry" />
        </mxCell>
        <mxCell id="FiwjEUYQYhtLU72TDXJb-18" value="" style="rounded=1;whiteSpace=wrap;html=1;" vertex="1" parent="1">
          <mxGeometry x="330" y="340" width="270" height="110" as="geometry" />
        </mxCell>
        <mxCell id="FiwjEUYQYhtLU72TDXJb-19" value="" style="shape=image;verticalLabelPosition=bottom;labelBackgroundColor=default;verticalAlign=top;aspect=fixed;imageAspect=0;image=https://miro.medium.com/v2/resize:fit:546/1*IXq96YHAUoKk-ZNLOpaRUQ.png;" vertex="1" parent="1">
          <mxGeometry x="340" y="346" width="126" height="60" as="geometry" />
        </mxCell>
        <mxCell id="FiwjEUYQYhtLU72TDXJb-20" value="" style="shape=image;verticalLabelPosition=bottom;labelBackgroundColor=default;verticalAlign=top;aspect=fixed;imageAspect=0;image=https://www.opc-router.de/wp-content/uploads/2021/03/mongodb_thumbnail.png;" vertex="1" parent="1">
          <mxGeometry x="450" y="349" width="52.04" height="70" as="geometry" />
        </mxCell>
        <mxCell id="FiwjEUYQYhtLU72TDXJb-21" value="ms-products" style="text;html=1;align=center;verticalAlign=middle;whiteSpace=wrap;rounded=0;fontSize=17;" vertex="1" parent="1">
          <mxGeometry x="340" y="410" width="150" height="30" as="geometry" />
        </mxCell>
        <mxCell id="FiwjEUYQYhtLU72TDXJb-22" value="" style="shape=image;verticalLabelPosition=bottom;labelBackgroundColor=default;verticalAlign=top;aspect=fixed;imageAspect=0;image=https://pbs.twimg.com/profile_images/1235936519032049665/dBCF5aOn_400x400.png;" vertex="1" parent="1">
          <mxGeometry x="510" y="215" width="65" height="65" as="geometry" />
        </mxCell>
        <mxCell id="FiwjEUYQYhtLU72TDXJb-23" value="" style="shape=image;verticalLabelPosition=bottom;labelBackgroundColor=default;verticalAlign=top;aspect=fixed;imageAspect=0;image=https://pbs.twimg.com/profile_images/1235936519032049665/dBCF5aOn_400x400.png;" vertex="1" parent="1">
          <mxGeometry x="510" y="40" width="80" height="80" as="geometry" />
        </mxCell>
        <mxCell id="FiwjEUYQYhtLU72TDXJb-24" value="" style="shape=image;verticalLabelPosition=bottom;labelBackgroundColor=default;verticalAlign=top;aspect=fixed;imageAspect=0;image=https://pbs.twimg.com/profile_images/1235936519032049665/dBCF5aOn_400x400.png;" vertex="1" parent="1">
          <mxGeometry x="510" y="349" width="80" height="80" as="geometry" />
        </mxCell>
        <mxCell id="FiwjEUYQYhtLU72TDXJb-28" value="" style="rounded=1;whiteSpace=wrap;html=1;" vertex="1" parent="1">
          <mxGeometry x="707" y="80" width="183" height="110" as="geometry" />
        </mxCell>
        <mxCell id="FiwjEUYQYhtLU72TDXJb-29" value="" style="shape=image;verticalLabelPosition=bottom;labelBackgroundColor=default;verticalAlign=top;aspect=fixed;imageAspect=0;image=https://pbs.twimg.com/profile_images/1235936519032049665/dBCF5aOn_400x400.png;" vertex="1" parent="1">
          <mxGeometry x="801" y="85" width="80" height="80" as="geometry" />
        </mxCell>
        <mxCell id="FiwjEUYQYhtLU72TDXJb-30" value="config-server" style="text;html=1;align=center;verticalAlign=middle;whiteSpace=wrap;rounded=0;fontSize=17;" vertex="1" parent="1">
          <mxGeometry x="723.5" y="150" width="150" height="30" as="geometry" />
        </mxCell>
        <mxCell id="FiwjEUYQYhtLU72TDXJb-31" value="" style="shape=image;verticalLabelPosition=bottom;labelBackgroundColor=default;verticalAlign=top;aspect=fixed;imageAspect=0;image=data:image/jpeg,/9j/4AAQSkZJRgABAQAAAQABAAD/2wCEAAkGBxITEhITERIWFRAVFRUWFxYRFhUYFRAYFREaFxcSFhMYHCghGR4lGxYVITEiJSkrLi4uFx8zODMtNygtLi0BCgoKDQ0ODw8PDysZFRkrKysrKy0rKys3KystKy0tLSsrKystKys3KystKysrKystKysrKysrKysrKy0rKystK//AABEIAOAA4AMBIgACEQEDEQH/xAAcAAEAAgMBAQEAAAAAAAAAAAAABwgBBQYEAgP/xABJEAABAwICBwQECQkGBwAAAAABAAIDBBEFIQYHEjFBUXETImGBQnKRoQgUIzJic4KisSQzNVJTsrPBwkOSk6PD4RUlVGN0g4T/xAAWAQEBAQAAAAAAAAAAAAAAAAAAAQL/xAAXEQEBAQEAAAAAAAAAAAAAAAAAAREx/9oADAMBAAIRAxEAPwCcUREBERAREQEREBERAREQEREBERAREQEREBERAREQEREBERAREQEREBERAREQEREBF8yPABJIAGZJyA81yuK6yMLp7h9ZG5w3thvK4HlaMHNB1iKLKzXnQN/NwVEnjsxsHvdf3LUS6/Bfu4cSObqkA+wRH8VcE1IoVj1+Z97DiBzbUgn2GIfittR686B352Coj8bMePc6/uTBKiLk8J1j4XUWDKyNrjkGzXiJO61pAM7rqo3ggEEEHcRmD0Kg+kREBERAREQEREBERAREQEREBERARYJUfaw9Z8FBtQw2mrbfNv3IMsjKRx47Az6b0HaYvjEFLGZamVsUY9J5tc8gN5PgFEGlOu83LMOhFv21QDn4thH4uPkopx7HKisl7WqldJJwvk2MfqsaMmjotctSJraY5pDV1jtqqqJJc7hrz3G+rGLNHsWrCIqgiIgIiIoVs8D0hq6M3paiSLO5aw9x3rRm7T7FrEREz6La8DcMxGEW/bU43eLoT+LT5KX8IxiCqjEtNK2WM+kw3seRHA+BzVOVssBx2oo5RLSyujfle2bZAPRew5OHVTF1cJFHurvWhBX7MM9oa3g2/cn8YieP0Tn1Ug3WVZREQEREBERAREQEREBYKyo01w6fGij+K0zvyyVty4HOmjOW165ztysTyuGs1r6zzAX0dC75cZSzg/mOcbPp8z6Pid0FON7km5OZJzJJNySeJWEW8QReqmw6eQF0UMsjRkXRxveAeRLRYLy3zI4jeOI6hEEREBERAREQEREBEvw48ua9VThk8bQ+SCVjDYB0kb2tJO4bTgAg8zTYgjIg3BGRBG4g8FOuqjWgZ3Mo653y5sIpifz5/Zv5P3WPpeB3wSiYq6YWVGmp7T41sfxWpd+WRNuHE51MYy2vXGW1zuDztJawoiIgIiICIiAiIg0ul+kEdDSS1MmewO629jK85MjHU+654Kp+J4hJUTSTzO2pZHFzjzJ4DkALADkApE17aS9vVtpGH5Kl+dydM8C/91th1c5RitSIIi+ZNx6H8FUWn1T4WKfCqRtrOkYJneLpu/n0BaPJbrHNHKSrbs1VPHKOBe0bTfVeO83yK/fAmgU1OBu7GK3TsxZe5YaQZphqUezakw2Tbbv+LzEB/wD65tzuGTgOqikYZP2roRBKZ2mzoxG8yN6sAuP91clYAV0VXodXGLS5topGjnKWR+5zgfctrHqcxY72QjrMP5AqyiJpitj9TeLDcyE9Jh/NoWqrdWuLRXJonuHOJzH+5rr+5WoRNTFNZ8NnZIInwStmcbNjdG8Peb2s1lru8lKeh2pWWS0mIvMTDY9jEQZD68m5nQXPiFOxCymq0+A6MUdG0NpaeOPKxcG3e71pD3neZXk1h4V8Zw6ritdxic5nrxjbZ72hdGvyqQNhwO7ZdfpZQUwBRfMe4dB+C+ltl6sMxCSnmjnhdsyxODmnxHAjiDuI5Eq2GiGkEddSRVMeW2LObe/ZPGT4z0PtFjxVRVJuorSb4vVupHu+Rqvm33NmaO7bltNu3xIapViw6IiyoiIgIiIC1ukeKtpaWepdmIY3Pt+sQO63zNh5rZKLvhBYr2dDFAD3qiYXHEsiG2773Z+1BX+ad73OfIdqR7i9zj6TnHacfMkr4RFtkSyLsdVmigxCtDZBemhAkm+kL2ZF9o7/AAa5FT7q1q3S4XQve0h3YMb3hYu2Bsh48HAA38V0y+WMAFgLAZADcAOFl9LCiIiAiIgIiICIiAtLppWPhoauSNpc9sEhaGi5J2CAbDgL3PgCt0sEIKVtGQWV3et/RJtBWB0LbUtQHPYBujeD8pEPAbTSPB1uC4RbZF9wTPY5r43bMjHBzXDe1zTdrh0IC+EQXC0cxZtXSwVLcmyxtfb9Ukd5vkbjyWyUW/B9xXtKGWnJ71PMbDkyXvt+8JPYpSWGhERAREQFAPwh6zarKWHhHAX+cshH+kFPyrVrykvi0g/VhhH3S7+pWDgERFpkVidQuEiLDjNbv1ErnE8SyM9mwdMnH7SrsrVarG2wmgt+xafaSVKsdUiIsqIiICIiAiIgIiICIiDgdduFCbC5X278DmTDoDsv+65yrSra6wGg4ZiF/wDpKg+yFxHvCqUtRBERVErfB4rNmsqov2kAf/hSgf6p96n4KtOo2S2LRD9aGYfdB/krLLNWCIiiiIiAqza7W2xefxjhP+WrMquev2m2cTa/hJTRnza97SPYG+1WCN0RFpkVpNUU4fhFFb0WOYerJHNP4Kran/4PmKh9FNTk96CYuA5MmG0PvNkUqxKqIiyoiIgIiICIiAiIgIiIOa1lT7GFV5500rf77dj+pVQVitfWKCPDeyv3qiVjAOOyw9o4/daPtKuq1EoiIqju9STb4vB4RzH/AC/91ZlVz1B0+1ibncI6aU+bnsaB7z7FYxZqwREUUREQFC3wjcPNqGoG4GWF3Vwa9n7j/cppXH62MGNVhlSxovJG0TMA37UXeIHiW7Q80gq2iAotsi7LVTpMKGvY6Q2p5h2MpO5gJuyQ+q4exzlxqFFXTBWVC+qTWY3ZZQ1zw0tAbDO82DhuEMhO4jKzuIyOYuZnCwrKIiAiIgIiICIiAsXS6iXWxrMZEx9HQv2qh12yysOVONzmNcN7+GXzeqDg9cukwrK4sjdeCmBiaRmHPJvK8HlcNb9hcEgRbZERCUE1/Bzw42rqgjImKJv2Q57/AN6P3qaVx+qfBviuGUzHC0kje2eDvDpe8AejdkeS7BYaEREBERAWHC+/csogqXp5o+aGunp7fJg7cXjE/Nnszb9lc+rE679EjVUoqYheopQ4kDfJCc3t8S220OjuarstxKl7Q/VJSVtHDUCtkL5GAuEbY9mJ9u9EQQTdpy3i/muY041ZVeHt7XaFRS8ZY2lpi+sjudkeNyOdloNFtJqmgmEtM+2Y22Ens5gPRe3jxsd44K0WjONwYhSMnjAMcjSHsdY7DrWfE8cbZ9Qb8VngqKu10P1nV1CBHtCenFgI5ybsA4RyDNvQ3HgvnWloYcOqvkwfic13RHgw+lCTzHDmCORXGLXRYzA9c+HTACftKZ/HtGlzPKRl/aQF2OH6UUM+cNXA/wAGysuOrb3CqEpA1MaKsrax0kzQ6Cla15a4XD5HkiNpHEd1xt9EKWCyYKysALKyoiIg1OIaTUUAvNVwR+vKwE9Be5XIY3rlw2EEQufUv4CJpDfOR9h7LqOdd+ijKSqZUQMDYana2mtFmslbbatbdtAg25tco2VxHeaXa1a6tBjZamgNwWQuJe8EbnzWBI6ALgwiLQIiIgug0C0fNdXQU9rxk7cvhEzN9+uTftLn1YnUhomaWkNTKLT1Qa4AjOOIZsb4E3Lj1byUqpKAtuWURZUREQEREBERBghVp1taEf8AD6jtYW/kU7iWWGUD95hPhvLfC44Ky68GN4RDVQSQTsDopBYjiOTmng4GxB4EIKdKStRekhp600rz8jVZAHc2ZoJaRy2hdvjZq5rTrQ6bDZ+zku6F1zFLawkA4Hk4cR5hc2x5BBaSHAggtNi0g3BBG4g2N1vqLh45g0FXC6CpjEkTt4O8Hg5pGbSOBChfHtRtQ1xNFURyR8G1F2PaOW20EO62aui0D1wQTMbFiLhDUAAdqfzM30if7N3MHLkeAk+kq45W7UT2vbzjcHD2hZ4qvlHqTxJxAkfTxt4kvc89Q1rM/aFL+rvQtuGQPiEvavkftvfs7Avshoa1tzkAOJ4ldU4gZnIeK+IJ2PF2Oa4XtdpBAPK4TR+iIigIiII21+0odhYfxjqInD7V2H95V0VlNen6Jl+tg/jBVrWolERFUERdJoLodNiU/Zx3bC2xlltcRA8BzceA80G51TaEGvqO1mb+RQOG3cZTvGYhHhxd4WHFWWaF4cDwiGkgjp4GBkUYsAN55uceLicyeJK96zrQiIoCIiAiIgIiICIiDX47gsFXC+CoYHxPG472ng5p9Fw4EKtun+r2ow1xfnLRk2bMB8y5yZKPRPC+4+G5WiXxLEHAtcAWkEEEAhwO8EHerKKXI0WNxkeY3qddNdTEchdLhzhE85mCS/ZOP/beM4+liOihnGcHqKSTs6qF8UnAPGTrcWu3OHQlXqPDIS75xJ9Y3/FWL1A/or/6Jv6VXNWL1Afos/8Akzfg1KJJREWVEREEfa9Xf8pk+tg/igqtisjr3/RL/roP4irctRKIvbhGEVFVJ2VNC+WTlGL7Pi525o8SQpl0J1MMjLZcSc2V28U8d+zb9Y/+04ZAAesrpiP9X+r2oxJwfnFRg96Yj59jmyIekeF9w8dysjgOCwUcLIKdgZG0buLjxe4+k48SvdDE1oDWgNaAAGtAAaBuAA3L7WNUREQEREBERAREQEREBERAREQF5cQw+KdhjnjZJGd7ZGhzT5FepEEaYtqUw6V+1E6an5tjcHM8hICR7bLttGcBhoadlNTgiNl83G7nuJu57jxJK2qICIiAiIg1ukeCQ1tPJTTgmKQC+ybOaQbtc08CCAVwmFak8PjftSvmnF7hj3BrPMRgE+1SaiDyYbhsNOwRwRMijG5sbQ0dbDefFetEQEREBERAREQEREBERAREQEREBERAREQEREBERAREQEREBERAREQEREBERAREQf/Z;" vertex="1" parent="1">
          <mxGeometry x="750" y="98" width="54" height="54" as="geometry" />
        </mxCell>
        <mxCell id="FiwjEUYQYhtLU72TDXJb-32" value="" style="shape=image;verticalLabelPosition=bottom;labelBackgroundColor=default;verticalAlign=top;aspect=fixed;imageAspect=0;image=https://pbs.twimg.com/profile_images/1235936519032049665/dBCF5aOn_400x400.png;" vertex="1" parent="1">
          <mxGeometry x="135" y="170" width="70" height="70" as="geometry" />
        </mxCell>
        <mxCell id="FiwjEUYQYhtLU72TDXJb-33" value="" style="rounded=1;whiteSpace=wrap;html=1;" vertex="1" parent="1">
          <mxGeometry x="110" y="40" width="150" height="85" as="geometry" />
        </mxCell>
        <mxCell id="FiwjEUYQYhtLU72TDXJb-36" value="Discovery-server" style="text;html=1;align=center;verticalAlign=middle;whiteSpace=wrap;rounded=0;fontSize=17;" vertex="1" parent="1">
          <mxGeometry x="100" y="95" width="170" height="30" as="geometry" />
        </mxCell>
        <mxCell id="FiwjEUYQYhtLU72TDXJb-37" value="" style="shape=image;verticalLabelPosition=bottom;labelBackgroundColor=default;verticalAlign=top;aspect=fixed;imageAspect=0;image=https://pbs.twimg.com/profile_images/1235936519032049665/dBCF5aOn_400x400.png;" vertex="1" parent="1">
          <mxGeometry x="120" y="50" width="48" height="48" as="geometry" />
        </mxCell>
        <mxCell id="FiwjEUYQYhtLU72TDXJb-42" value="" style="endArrow=none;html=1;rounded=0;entryX=0.863;entryY=-0.001;entryDx=0;entryDy=0;entryPerimeter=0;exitX=0.5;exitY=0;exitDx=0;exitDy=0;" edge="1" parent="1" source="FiwjEUYQYhtLU72TDXJb-28" target="FiwjEUYQYhtLU72TDXJb-38">
          <mxGeometry width="50" height="50" relative="1" as="geometry">
            <mxPoint x="390" y="230" as="sourcePoint" />
            <mxPoint x="440" y="180" as="targetPoint" />
          </mxGeometry>
        </mxCell>
        <mxCell id="FiwjEUYQYhtLU72TDXJb-46" value="" style="endArrow=none;html=1;rounded=0;entryX=0.174;entryY=0;entryDx=0;entryDy=0;entryPerimeter=0;exitX=0.5;exitY=0;exitDx=0;exitDy=0;" edge="1" parent="1" source="FiwjEUYQYhtLU72TDXJb-33" target="FiwjEUYQYhtLU72TDXJb-38">
          <mxGeometry width="50" height="50" relative="1" as="geometry">
            <mxPoint x="161" y="80" as="sourcePoint" />
            <mxPoint x="160" as="targetPoint" />
          </mxGeometry>
        </mxCell>
        <mxCell id="KSpair8llf9jZ93B1J-t-1" value="" style="rounded=1;whiteSpace=wrap;html=1;" vertex="1" parent="1">
          <mxGeometry x="630" y="340" width="270" height="110" as="geometry" />
        </mxCell>
        <mxCell id="KSpair8llf9jZ93B1J-t-2" value="" style="shape=image;verticalLabelPosition=bottom;labelBackgroundColor=default;verticalAlign=top;aspect=fixed;imageAspect=0;image=https://miro.medium.com/v2/resize:fit:546/1*IXq96YHAUoKk-ZNLOpaRUQ.png;" vertex="1" parent="1">
          <mxGeometry x="640" y="346" width="126" height="60" as="geometry" />
        </mxCell>
        <mxCell id="KSpair8llf9jZ93B1J-t-3" value="" style="shape=image;verticalLabelPosition=bottom;labelBackgroundColor=default;verticalAlign=top;aspect=fixed;imageAspect=0;image=https://www.opc-router.de/wp-content/uploads/2021/03/mongodb_thumbnail.png;" vertex="1" parent="1">
          <mxGeometry x="750" y="349" width="52.04" height="70" as="geometry" />
        </mxCell>
        <mxCell id="KSpair8llf9jZ93B1J-t-4" value="ms-transactions" style="text;html=1;align=center;verticalAlign=middle;whiteSpace=wrap;rounded=0;fontSize=17;" vertex="1" parent="1">
          <mxGeometry x="640" y="410" width="150" height="30" as="geometry" />
        </mxCell>
        <mxCell id="KSpair8llf9jZ93B1J-t-5" value="" style="shape=image;verticalLabelPosition=bottom;labelBackgroundColor=default;verticalAlign=top;aspect=fixed;imageAspect=0;image=https://pbs.twimg.com/profile_images/1235936519032049665/dBCF5aOn_400x400.png;" vertex="1" parent="1">
          <mxGeometry x="810" y="349" width="80" height="80" as="geometry" />
        </mxCell>
      </root>
    </mxGraphModel>
  </diagram>
</mxfile>
